<svg viewBox="0 0 980 280" xmlns="http://www.w3.org/2000/svg">
  <rect width="980" height="280" rx="28" fill="#FFFFFF"/>
  <!-- Flower icon block -->
  <svg x="40" y="30" width="220" height="220" viewBox="0 0 512 512">
    <!-- Petals -->
    <ellipse cx="256" cy="140" rx="65" ry="95" fill="none" stroke="#8B0000" stroke-width="18" stroke-dasharray="10 7"/>
    <ellipse cx="256" cy="140" rx="65" ry="95" fill="#8B0000" opacity="0.15"/>
    <ellipse cx="340" cy="185" rx="65" ry="95" transform="rotate(72 340 185)" fill="none" stroke="#8B0000" stroke-width="18" stroke-dasharray="10 7"/>
    <ellipse cx="340" cy="185" rx="65" ry="95" transform="rotate(72 340 185)" fill="#8B0000" opacity="0.15"/>
    <ellipse cx="310" cy="280" rx="65" ry="95" transform="rotate(144 310 280)" fill="none" stroke="#8B0000" stroke-width="18" stroke-dasharray="10 7"/>
    <ellipse cx="310" cy="280" rx="65" ry="95" transform="rotate(144 310 280)" fill="#8B0000" opacity="0.15"/>
    <ellipse cx="202" cy="280" rx="65" ry="95" transform="rotate(216 202 280)" fill="none" stroke="#8B0000" stroke-width="18" stroke-dasharray="10 7"/>
    <ellipse cx="202" cy="280" rx="65" ry="95" transform="rotate(216 202 280)" fill="#8B0000" opacity="0.15"/>
    <ellipse cx="172" cy="185" rx="65" ry="95" transform="rotate(288 172 185)" fill="none" stroke="#8B0000" stroke-width="18" stroke-dasharray="10 7"/>
    <ellipse cx="172" cy="185" rx="65" ry="95" transform="rotate(288 172 185)" fill="#8B0000" opacity="0.15"/>
    <!-- Center -->
    <circle cx="256" cy="220" r="52" fill="#F5C518" stroke="#F5C518" stroke-width="14" stroke-dasharray="10 6"/>
    <circle cx="256" cy="220" r="32" fill="#FFFEF0"/>
    <!-- Stem -->
    <path d="M256 272 Q240 360 220 420" fill="none" stroke="#2D6A2D" stroke-width="18" stroke-dasharray="10 7" stroke-linecap="round"/>
    <!-- Leaf -->
    <ellipse cx="195" cy="400" rx="45" ry="25" transform="rotate(-30 195 400)" fill="none" stroke="#2D6A2D" stroke-width="14" stroke-dasharray="8 6"/>
    <ellipse cx="195" cy="400" rx="45" ry="25" transform="rotate(-30 195 400)" fill="#2D6A2D" opacity="0.2"/>
  </svg>
  <text x="292" y="190" font-family="Geist, -apple-system, Helvetica, Arial, sans-serif"
        font-size="148" font-weight="700" fill="#1A1208" letter-spacing="-4">Sañcāra</text>
</svg>
